<?xml version="1.0" encoding="UTF-8" standalone="no"?>
<!DOCTYPE svg PUBLIC "-//W3C//DTD SVG 1.1//EN" "http://www.w3.org/Graphics/SVG/1.1/DTD/svg11.dtd">
<svg width="100%" height="100%" viewBox="0 0 1024 1024" version="1.1" xmlns="http://www.w3.org/2000/svg" xmlns:xlink="http://www.w3.org/1999/xlink" xml:space="preserve" xmlns:serif="http://www.serif.com/" style="fill-rule:evenodd;clip-rule:evenodd;stroke-linejoin:round;stroke-miterlimit:2;">
    <g transform="matrix(21.3333,0,0,21.3333,1.76138,23.1756)">
        <g transform="matrix(0.0480284,0,0,0.0480284,-0.260844,-1.17981)">
            <circle cx="503.417" cy="501.651" r="499.705" style="fill:rgb(176,190,197);"/>
        </g>
        <g transform="matrix(0.0636694,0,0,0.0636694,-12.5177,-5.10571)">
            <path d="M512,276.607C641.917,276.607 747.393,382.083 747.393,512C747.393,641.917 641.917,747.393 512,747.393C382.083,747.393 276.607,641.917 276.607,512C276.607,382.083 382.083,276.607 512,276.607ZM512,341.898C418.118,341.898 341.898,418.118 341.898,512C341.898,605.882 418.118,682.102 512,682.102C605.882,682.102 682.102,605.882 682.102,512C682.102,418.118 605.882,341.898 512,341.898Z" style="fill:rgb(84,110,122);"/>
        </g>
        <g transform="matrix(0.0455139,0,0,0.0455139,7.16154,-8.73618)">
            <path d="M512,276.607C641.917,276.607 747.393,382.083 747.393,512C747.393,641.917 641.917,747.393 512,747.393C382.083,747.393 276.607,641.917 276.607,512C276.607,382.083 382.083,276.607 512,276.607ZM512,341.898C418.118,341.898 341.898,418.118 341.898,512C341.898,605.882 418.118,682.102 512,682.102C605.882,682.102 682.102,605.882 682.102,512C682.102,418.118 605.882,341.898 512,341.898Z" style="fill:rgb(84,110,122);"/>
        </g>
    </g>
</svg>
